<?xml version="1.0"?>
<svg version="1.1" id="Layer_1" xmlns="http://www.w3.org/2000/svg" xmlns:xlink="http://www.w3.org/1999/xlink" x="0px" y="0px" viewBox="0 0 1000 1000" style="enable-background:new 0 0 496 496;" xml:space="preserve">
 <path fill="#FF2970" d="M496,465.6c0,16.8-13.6,30.4-30.4,30.4h-208c-16.8,0-30.4-13.6-30.4-30.4v-208  c0-16.8,13.6-30.4,30.4-30.4h208c16.8,0,30.4,13.6,30.4,30.4V465.6z" />
 <path fill="#D10257" d="M465.6,227.2c16.8,0,30.4,13.6,30.4,30.4v208c0,16.8-13.6,30.4-30.4,30.4h-208  c-16.8,0-30.4-13.6-30.4-30.4" />
 <path fill="#5349B7" d="M382.4,352c0,16.8-13.6,30.4-30.4,30.4H144c-16.8,0-30.4-13.6-30.4-30.4V144  c0-16.8,13.6-30.4,30.4-30.4h208c16.8,0,30.4,13.6,30.4,30.4V352z" />
 <path fill="#3B38A5" d="M171.2,113.6l-57.6,57.6V292h148c16.8,0,30.4-13.6,30.4-30.4v-148H171.2z" />
 <path fill="#3B38A5" d="M352,113.6c16.8,0,30.4,13.6,30.4,30.4v208c0,16.8-13.6,30.4-30.4,30.4H144  c-16.8,0-30.4-13.6-30.4-30.4" />
 <path fill="#D10257" d="M274.4,227.2l-47.2,47.2v126.4h143.2c16.8,0,30.4-13.6,30.4-30.4V227.2H274.4z" />
 <path fill="#37167F" d="M257.6,227.2c-16.8,0-30.4,13.6-30.4,30.4v124.8H352c16.8,0,30.4-13.6,30.4-30.4V227.2H257.6z" />
 <path fill="#2EB9FF" d="M268.8,238.4c0,16.8-13.6,30.4-30.4,30.4h-208C13.6,268.8,0,255.2,0,238.4v-208C0,13.6,13.6,0,30.4,0  h208c16.8,0,30.4,13.6,30.4,30.4V238.4z" />
 <path fill="#0097F4" d="M238.4,0c16.8,0,30.4,13.6,30.4,30.4v208c0,16.8-13.6,30.4-30.4,30.4h-208  C13.6,268.8,0,255.2,0,238.4" />


 <svg>
   <svg x="0" y="0">

    <mask id="punto0">
      <rect x="25" y="75" width="50" height="50" fill="white"/>
    </mask>>

    <g mask="url(#punto0)">
    <path fill="#FF2970" d="M496,465.6c0,16.8-13.6,30.4-30.4,30.4h-208c-16.8,0-30.4-13.6-30.4-30.4v-208  c0-16.8,13.6-30.4,30.4-30.4h208c16.8,0,30.4,13.6,30.4,30.4V465.6z" />
    <path fill="#D10257" d="M465.6,227.2c16.8,0,30.4,13.6,30.4,30.4v208c0,16.8-13.6,30.4-30.4,30.4h-208  c-16.8,0-30.4-13.6-30.4-30.4" />
    <path fill="#5349B7" d="M382.4,352c0,16.8-13.6,30.4-30.4,30.4H144c-16.8,0-30.4-13.6-30.4-30.4V144  c0-16.8,13.6-30.4,30.4-30.4h208c16.8,0,30.4,13.6,30.4,30.4V352z" />
    <path fill="#3B38A5" d="M171.2,113.6l-57.6,57.6V292h148c16.8,0,30.4-13.6,30.4-30.4v-148H171.2z" />
    <path fill="#3B38A5" d="M352,113.6c16.8,0,30.4,13.6,30.4,30.4v208c0,16.8-13.6,30.4-30.4,30.4H144  c-16.8,0-30.4-13.6-30.4-30.4" />
    <path fill="#D10257" d="M274.4,227.2l-47.2,47.2v126.4h143.2c16.8,0,30.4-13.6,30.4-30.4V227.2H274.4z" />
    <path fill="#37167F" d="M257.6,227.2c-16.8,0-30.4,13.6-30.4,30.4v124.8H352c16.8,0,30.4-13.6,30.4-30.4V227.2H257.6z" />
    <path fill="#2EB9FF" d="M268.8,238.4c0,16.8-13.6,30.4-30.4,30.4h-208C13.6,268.8,0,255.2,0,238.4v-208C0,13.6,13.6,0,30.4,0  h208c16.8,0,30.4,13.6,30.4,30.4V238.4z" />
    <path fill="#0097F4" d="M238.4,0c16.8,0,30.4,13.6,30.4,30.4v208c0,16.8-13.6,30.4-30.4,30.4h-208  C13.6,268.8,0,255.2,0,238.4" />
    </g>

   </svg>


   <svg x="0" y="0">

    <mask id="punto1">
      <rect x="75" y="175" width="50" height="50" fill="white"/>
    </mask>>

    <g mask="url(#punto1)">
    <path fill="#FF2970" d="M496,465.6c0,16.8-13.6,30.4-30.4,30.4h-208c-16.8,0-30.4-13.6-30.4-30.4v-208  c0-16.8,13.6-30.4,30.4-30.4h208c16.8,0,30.4,13.6,30.4,30.4V465.6z" />
    <path fill="#D10257" d="M465.6,227.2c16.8,0,30.4,13.6,30.4,30.4v208c0,16.8-13.6,30.4-30.4,30.4h-208  c-16.8,0-30.4-13.6-30.4-30.4" />
    <path fill="#5349B7" d="M382.4,352c0,16.8-13.6,30.4-30.4,30.4H144c-16.8,0-30.4-13.6-30.4-30.4V144  c0-16.8,13.6-30.4,30.4-30.4h208c16.8,0,30.4,13.6,30.4,30.4V352z" />
    <path fill="#3B38A5" d="M171.2,113.6l-57.6,57.6V292h148c16.8,0,30.4-13.6,30.4-30.4v-148H171.2z" />
    <path fill="#3B38A5" d="M352,113.6c16.8,0,30.4,13.6,30.4,30.4v208c0,16.8-13.6,30.4-30.4,30.4H144  c-16.8,0-30.4-13.6-30.4-30.4" />
    <path fill="#D10257" d="M274.4,227.2l-47.2,47.2v126.4h143.2c16.8,0,30.4-13.6,30.4-30.4V227.2H274.4z" />
    <path fill="#37167F" d="M257.6,227.2c-16.8,0-30.4,13.6-30.4,30.4v124.8H352c16.8,0,30.4-13.6,30.4-30.4V227.2H257.6z" />
    <path fill="#2EB9FF" d="M268.8,238.4c0,16.8-13.6,30.4-30.4,30.4h-208C13.6,268.8,0,255.2,0,238.4v-208C0,13.6,13.6,0,30.4,0  h208c16.8,0,30.4,13.6,30.4,30.4V238.4z" />
    <path fill="#0097F4" d="M238.4,0c16.8,0,30.4,13.6,30.4,30.4v208c0,16.8-13.6,30.4-30.4,30.4h-208  C13.6,268.8,0,255.2,0,238.4" />
    </g>

   </svg>


   <svg x="0" y="0">

    <mask id="punto2">
      <rect x="75" y="295" width="50" height="50" fill="white"/>
    </mask>>

    <g mask="url(#punto2)">
    <path fill="#FF2970" d="M496,465.6c0,16.8-13.6,30.4-30.4,30.4h-208c-16.8,0-30.4-13.6-30.4-30.4v-208  c0-16.8,13.6-30.4,30.4-30.4h208c16.8,0,30.4,13.6,30.4,30.4V465.6z" />
    <path fill="#D10257" d="M465.6,227.2c16.8,0,30.4,13.6,30.4,30.4v208c0,16.8-13.6,30.4-30.4,30.4h-208  c-16.8,0-30.4-13.6-30.4-30.4" />
    <path fill="#5349B7" d="M382.4,352c0,16.8-13.6,30.4-30.4,30.4H144c-16.8,0-30.4-13.6-30.4-30.4V144  c0-16.8,13.6-30.4,30.4-30.4h208c16.8,0,30.4,13.6,30.4,30.4V352z" />
    <path fill="#3B38A5" d="M171.2,113.6l-57.6,57.6V292h148c16.8,0,30.4-13.6,30.4-30.4v-148H171.2z" />
    <path fill="#3B38A5" d="M352,113.6c16.8,0,30.4,13.6,30.4,30.4v208c0,16.8-13.6,30.4-30.4,30.4H144  c-16.8,0-30.4-13.6-30.4-30.4" />
    <path fill="#D10257" d="M274.4,227.2l-47.2,47.2v126.4h143.2c16.8,0,30.4-13.6,30.4-30.4V227.2H274.4z" />
    <path fill="#37167F" d="M257.6,227.2c-16.8,0-30.4,13.6-30.4,30.4v124.8H352c16.8,0,30.4-13.6,30.4-30.4V227.2H257.6z" />
    <path fill="#2EB9FF" d="M268.8,238.4c0,16.8-13.6,30.4-30.4,30.4h-208C13.6,268.8,0,255.2,0,238.4v-208C0,13.6,13.6,0,30.4,0  h208c16.8,0,30.4,13.6,30.4,30.4V238.4z" />
    <path fill="#0097F4" d="M238.4,0c16.8,0,30.4,13.6,30.4,30.4v208c0,16.8-13.6,30.4-30.4,30.4h-208  C13.6,268.8,0,255.2,0,238.4" />
    </g>

   </svg>


   <svg x="0" y="0">

    <mask id="punto3">
      <rect x="325" y="175" width="50" height="50" fill="white"/>
    </mask>>

    <g mask="url(#punto3)">
    <path fill="#FF2970" d="M496,465.6c0,16.8-13.6,30.4-30.4,30.4h-208c-16.8,0-30.4-13.6-30.4-30.4v-208  c0-16.8,13.6-30.4,30.4-30.4h208c16.8,0,30.4,13.6,30.4,30.4V465.6z" />
    <path fill="#D10257" d="M465.6,227.2c16.8,0,30.4,13.6,30.4,30.4v208c0,16.8-13.6,30.4-30.4,30.4h-208  c-16.8,0-30.4-13.6-30.4-30.4" />
    <path fill="#5349B7" d="M382.4,352c0,16.8-13.6,30.4-30.4,30.4H144c-16.8,0-30.4-13.6-30.4-30.4V144  c0-16.8,13.6-30.4,30.4-30.4h208c16.8,0,30.4,13.6,30.4,30.4V352z" />
    <path fill="#3B38A5" d="M171.2,113.6l-57.6,57.6V292h148c16.8,0,30.4-13.6,30.4-30.4v-148H171.2z" />
    <path fill="#3B38A5" d="M352,113.6c16.8,0,30.4,13.6,30.4,30.4v208c0,16.8-13.6,30.4-30.4,30.4H144  c-16.8,0-30.4-13.6-30.4-30.4" />
    <path fill="#D10257" d="M274.4,227.2l-47.2,47.2v126.4h143.2c16.8,0,30.4-13.6,30.4-30.4V227.2H274.4z" />
    <path fill="#37167F" d="M257.6,227.2c-16.8,0-30.4,13.6-30.4,30.4v124.8H352c16.8,0,30.4-13.6,30.4-30.4V227.2H257.6z" />
    <path fill="#2EB9FF" d="M268.8,238.4c0,16.8-13.6,30.4-30.4,30.4h-208C13.6,268.8,0,255.2,0,238.4v-208C0,13.6,13.6,0,30.4,0  h208c16.8,0,30.4,13.6,30.4,30.4V238.4z" />
    <path fill="#0097F4" d="M238.4,0c16.8,0,30.4,13.6,30.4,30.4v208c0,16.8-13.6,30.4-30.4,30.4h-208  C13.6,268.8,0,255.2,0,238.4" />
    </g>

   </svg>


   <svg x="0" y="0">

    <mask id="punto4">
      <rect x="325" y="375" width="50" height="50" fill="white"/>
    </mask>>

    <g mask="url(#punto4)">
    <path fill="#FF2970" d="M496,465.6c0,16.8-13.6,30.4-30.4,30.4h-208c-16.8,0-30.4-13.6-30.4-30.4v-208  c0-16.8,13.6-30.4,30.4-30.4h208c16.8,0,30.4,13.6,30.4,30.4V465.6z" />
    <path fill="#D10257" d="M465.6,227.2c16.8,0,30.4,13.6,30.4,30.4v208c0,16.8-13.6,30.4-30.4,30.4h-208  c-16.8,0-30.4-13.6-30.4-30.4" />
    <path fill="#5349B7" d="M382.4,352c0,16.8-13.6,30.4-30.4,30.4H144c-16.8,0-30.4-13.6-30.4-30.4V144  c0-16.8,13.6-30.4,30.4-30.4h208c16.8,0,30.4,13.6,30.4,30.4V352z" />
    <path fill="#3B38A5" d="M171.2,113.6l-57.6,57.6V292h148c16.8,0,30.4-13.6,30.4-30.4v-148H171.2z" />
    <path fill="#3B38A5" d="M352,113.6c16.8,0,30.4,13.6,30.4,30.4v208c0,16.8-13.6,30.4-30.4,30.4H144  c-16.8,0-30.4-13.6-30.4-30.4" />
    <path fill="#D10257" d="M274.4,227.2l-47.2,47.2v126.4h143.2c16.8,0,30.4-13.6,30.4-30.4V227.2H274.4z" />
    <path fill="#37167F" d="M257.6,227.2c-16.8,0-30.4,13.6-30.4,30.4v124.8H352c16.8,0,30.4-13.6,30.4-30.4V227.2H257.6z" />
    <path fill="#2EB9FF" d="M268.8,238.4c0,16.8-13.6,30.4-30.4,30.4h-208C13.6,268.8,0,255.2,0,238.4v-208C0,13.6,13.6,0,30.4,0  h208c16.8,0,30.4,13.6,30.4,30.4V238.4z" />
    <path fill="#0097F4" d="M238.4,0c16.8,0,30.4,13.6,30.4,30.4v208c0,16.8-13.6,30.4-30.4,30.4h-208  C13.6,268.8,0,255.2,0,238.4" />
    </g>
   </svg>


   <svg x="0" y="0">

    <mask id="punto5">
      <rect x="225" y="375" width="50" height="50" fill="white"/>
    </mask>>

    <g mask="url(#punto5)">
    <path fill="#FF2970" d="M496,465.6c0,16.8-13.6,30.4-30.4,30.4h-208c-16.8,0-30.4-13.6-30.4-30.4v-208  c0-16.8,13.6-30.4,30.4-30.4h208c16.8,0,30.4,13.6,30.4,30.4V465.6z" />
    <path fill="#D10257" d="M465.6,227.2c16.8,0,30.4,13.6,30.4,30.4v208c0,16.8-13.6,30.4-30.4,30.4h-208  c-16.8,0-30.4-13.6-30.4-30.4" />
    <path fill="#5349B7" d="M382.4,352c0,16.8-13.6,30.4-30.4,30.4H144c-16.8,0-30.4-13.6-30.4-30.4V144  c0-16.8,13.6-30.4,30.4-30.4h208c16.8,0,30.4,13.6,30.4,30.4V352z" />
    <path fill="#3B38A5" d="M171.2,113.6l-57.6,57.6V292h148c16.8,0,30.4-13.6,30.4-30.4v-148H171.2z" />
    <path fill="#3B38A5" d="M352,113.6c16.8,0,30.4,13.6,30.4,30.4v208c0,16.8-13.6,30.4-30.4,30.4H144  c-16.8,0-30.4-13.6-30.4-30.4" />
    <path fill="#D10257" d="M274.4,227.2l-47.2,47.2v126.4h143.2c16.8,0,30.4-13.6,30.4-30.4V227.2H274.4z" />
    <path fill="#37167F" d="M257.6,227.2c-16.8,0-30.4,13.6-30.4,30.4v124.8H352c16.8,0,30.4-13.6,30.4-30.4V227.2H257.6z" />
    <path fill="#2EB9FF" d="M268.8,238.4c0,16.8-13.6,30.4-30.4,30.4h-208C13.6,268.8,0,255.2,0,238.4v-208C0,13.6,13.6,0,30.4,0  h208c16.8,0,30.4,13.6,30.4,30.4V238.4z" />
    <path fill="#0097F4" d="M238.4,0c16.8,0,30.4,13.6,30.4,30.4v208c0,16.8-13.6,30.4-30.4,30.4h-208  C13.6,268.8,0,255.2,0,238.4" />
    </g>

  </svg>
 </svg>


</svg>
